<?xml version="1.0" encoding="iso-8859-1"?>
<!-- Uploaded to: SVG Repo, www.svgrepo.com, Generator: SVG Repo Mixer Tools -->
<svg height="800px" width="800px" version="1.1" id="Layer_1" xmlns="http://www.w3.org/2000/svg" xmlns:xlink="http://www.w3.org/1999/xlink" 
	 viewBox="0 0 512 512" xml:space="preserve">
<path style="fill:#25B6D2;" d="M256,0C201.824,56.96,122.944,65.816,79.104,65.816c-19.8,0-32.432-1.808-32.432-1.808s0,92,0,224
	S256,512,256,512s209.328-92,209.328-224s0-224,0-224s-12.632,1.808-32.432,1.808C389.056,65.816,310.208,56.96,256,0L256,0z"/>
<path style="fill:#34CCE0;" d="M256,512c0,0,209.328-92,209.328-224s0-224,0-224s-12.632,1.808-32.432,1.808
	C389.056,65.816,310.208,56.96,256,0l0,0"/>
<g>
	<path style="fill:#FFFFFF;" d="M96.656,266.112c0-7.456,5.184-12.8,12.312-12.8c7.288,0,12.312,5.184,12.312,12.8
		c0,7.288-4.856,12.8-12.312,12.8C101.68,278.904,96.656,273.4,96.656,266.112z"/>
	<path style="fill:#FFFFFF;" d="M195.296,274.696c-4.208,1.944-12.472,4.048-22.352,4.048c-24.624,0-40.656-15.712-40.656-40.168
		c0-23.648,16.192-42.12,43.896-42.12c7.288,0,14.744,1.624,19.272,3.728l-3.56,14.904c-3.24-1.464-7.936-3.08-15.064-3.08
		c-15.224,0-24.296,11.168-24.144,25.592c0,16.192,10.528,25.432,24.144,25.432c6.96,0,11.824-1.456,15.712-3.08L195.296,274.696z"
		/>
	<path style="fill:#FFFFFF;" d="M283.568,236.952c0,28.992-20.408,41.952-40.496,41.952c-22.352,0-39.52-15.392-39.52-40.656
		c0-25.92,17.008-41.8,40.824-41.8C267.856,196.456,283.568,212.976,283.568,236.952z M224.12,237.768
		c0,15.224,7.456,26.728,19.6,26.728c11.336,0,19.272-11.176,19.272-27.056c0-12.312-5.504-26.408-19.112-26.408
		C229.792,211.032,224.12,224.64,224.12,237.768z"/>
	<path style="fill:#FFFFFF;" d="M299.904,221.728c0-9.072-0.16-16.688-0.64-23.496h17.168l0.816,11.664h0.488
		c3.888-6.16,11.016-13.448,24.296-13.448c10.368,0,18.472,5.832,21.872,14.576h0.32c2.752-4.368,5.992-7.608,9.72-9.872
		c4.376-3.08,9.4-4.704,15.872-4.704c13.128,0,26.408,8.912,26.408,34.176v46.496h-19.44v-43.576
		c0-13.12-4.536-20.888-14.096-20.888c-6.808,0-11.832,4.856-13.928,10.52c-0.496,1.944-0.976,4.376-0.976,6.648v47.296h-19.44
		v-45.68c0-11.016-4.376-18.792-13.608-18.792c-7.448,0-12.472,5.832-14.248,11.336c-0.816,1.944-1.136,4.208-1.136,6.48v46.656
		h-19.448V221.728z"/>
</g>
</svg>